<mxfile host="app.diagrams.net" modified="2024-07-03T02:33:19.085Z" agent="Mozilla/5.0 (Windows NT 10.0; Win64; x64) AppleWebKit/537.36 (KHTML, like Gecko) Chrome/126.0.0.0 Safari/537.36 Edg/126.0.0.0" version="24.6.4" etag="u78P2R2A1MsqVU8AIixC" type="github">
  <diagram name="第 1 页" id="M9fOjIyVc4XMh3BLdW63">
    <mxGraphModel>
      <root>
        <mxCell id="0" />
        <mxCell id="1" parent="0" />
      </root>
    </mxGraphModel>
  </diagram>
</mxfile>
